REM DIRINDEX 1\2,1\3,1\4,1\5,1\6
REM DIRNAME cjc030,folder01,folder02,folder03,folder04,folder05
TITLE ""
FILE "Disc1Track65.mp3" MP3
  TRACK 01 AUDIO
    TITLE "3:cjc030_01657"
    INDEX 01 00:00:00
  TRACK 02 AUDIO
    TITLE "0:"
    INDEX 01 00:01:17
  TRACK 03 AUDIO
    TITLE "4:cjc030_01658"
    INDEX 01 00:01:26
  TRACK 04 AUDIO
    TITLE "0:"
    INDEX 01 00:03:31
  TRACK 05 AUDIO
    TITLE "5:cjc030_01659"
    INDEX 01 00:03:37
  TRACK 06 AUDIO
    TITLE "0:"
    INDEX 01 00:04:56
  TRACK 07 AUDIO
    TITLE "6:cjc030_01660"
    INDEX 01 00:04:70
  TRACK 08 AUDIO
    TITLE "0:"
    INDEX 01 00:10:37
  TRACK 09 AUDIO
    TITLE "3:cjc030_01661"
    INDEX 01 00:11:13
  TRACK 10 AUDIO
    TITLE "0:"
    INDEX 01 00:12:42
  TRACK 11 AUDIO
    TITLE "4:cjc030_01662"
    INDEX 01 00:12:50
  TRACK 12 AUDIO
    TITLE "0:"
    INDEX 01 00:14:47
  TRACK 13 AUDIO
    TITLE "5:cjc030_01663"
    INDEX 01 00:14:54
  TRACK 14 AUDIO
    TITLE "0:"
    INDEX 01 00:16:08
  TRACK 15 AUDIO
    TITLE "3:cjc030_01664"
    INDEX 01 00:16:61
  TRACK 16 AUDIO
    TITLE "0:"
    INDEX 01 00:18:03
  TRACK 17 AUDIO
    TITLE "4:cjc030_01665"
    INDEX 01 00:18:11
  TRACK 18 AUDIO
    TITLE "0:"
    INDEX 01 00:20:47
  TRACK 19 AUDIO
    TITLE "5:cjc030_01666"
    INDEX 01 00:20:53
  TRACK 20 AUDIO
    TITLE "0:"
    INDEX 01 00:22:01
  TRACK 21 AUDIO
    TITLE "6:cjc030_01667"
    INDEX 01 00:22:09
  TRACK 22 AUDIO
    TITLE "0:"
    INDEX 01 00:25:70
  TRACK 23 AUDIO
    TITLE "3:cjc030_01668"
    INDEX 01 00:26:44
  TRACK 24 AUDIO
    TITLE "0:"
    INDEX 01 00:28:00
  TRACK 25 AUDIO
    TITLE "4:cjc030_01669"
    INDEX 01 00:28:08
  TRACK 26 AUDIO
    TITLE "0:"
    INDEX 01 00:29:68
  TRACK 27 AUDIO
    TITLE "5:cjc030_01670"
    INDEX 01 00:30:01
  TRACK 28 AUDIO
    TITLE "0:"
    INDEX 01 00:31:31
  TRACK 29 AUDIO
    TITLE "3:cjc030_01671"
    INDEX 01 00:32:13
  TRACK 30 AUDIO
    TITLE "0:"
    INDEX 01 00:33:28
  TRACK 31 AUDIO
    TITLE "4:cjc030_01672"
    INDEX 01 00:33:38
  TRACK 32 AUDIO
    TITLE "0:"
    INDEX 01 00:34:63
  TRACK 33 AUDIO
    TITLE "5:cjc030_01673"
    INDEX 01 00:34:71
  TRACK 34 AUDIO
    TITLE "0:"
    INDEX 01 00:36:13
  TRACK 35 AUDIO
    TITLE "6:cjc030_01674"
    INDEX 01 00:36:25
  TRACK 36 AUDIO
    TITLE "0:"
    INDEX 01 00:41:20
  TRACK 37 AUDIO
    TITLE "3:cjc030_01675"
    INDEX 01 00:41:69
  TRACK 38 AUDIO
    TITLE "0:"
    INDEX 01 00:43:23
  TRACK 39 AUDIO
    TITLE "4:cjc030_01676"
    INDEX 01 00:43:31
  TRACK 40 AUDIO
    TITLE "0:"
    INDEX 01 00:46:15
  TRACK 41 AUDIO
    TITLE "5:cjc030_01677"
    INDEX 01 00:46:25
  TRACK 42 AUDIO
    TITLE "0:"
    INDEX 01 00:47:56
  TRACK 43 AUDIO
    TITLE "3:cjc030_01678"
    INDEX 01 00:48:38
  TRACK 44 AUDIO
    TITLE "0:"
    INDEX 01 00:49:67
  TRACK 45 AUDIO
    TITLE "4:cjc030_01679"
    INDEX 01 00:50:01
  TRACK 46 AUDIO
    TITLE "0:"
    INDEX 01 00:52:20
  TRACK 47 AUDIO
    TITLE "5:cjc030_01680"
    INDEX 01 00:52:28
  TRACK 48 AUDIO
    TITLE "0:"
    INDEX 01 00:53:58
  TRACK 49 AUDIO
    TITLE "6:cjc030_01681"
    INDEX 01 00:53:70
  TRACK 50 AUDIO
    TITLE "0:"
    INDEX 01 00:59:71
  TRACK 51 AUDIO
    TITLE "3:cjc030_01682"
    INDEX 01 01:00:47
  TRACK 52 AUDIO
    TITLE "0:"
    INDEX 01 01:02:10
  TRACK 53 AUDIO
    TITLE "4:cjc030_01683"
    INDEX 01 01:02:16
  TRACK 54 AUDIO
    TITLE "0:"
    INDEX 01 01:04:07
  TRACK 55 AUDIO
    TITLE "5:cjc030_01684"
    INDEX 01 01:04:13
  TRACK 56 AUDIO
    TITLE "0:"
    INDEX 01 01:05:52
  TRACK 57 AUDIO
    TITLE "3:cjc030_01685"
    INDEX 01 01:06:28
  TRACK 58 AUDIO
    TITLE "0:"
    INDEX 01 01:07:49
  TRACK 59 AUDIO
    TITLE "4:cjc030_01686"
    INDEX 01 01:07:59
  TRACK 60 AUDIO
    TITLE "0:"
    INDEX 01 01:09:03
  TRACK 61 AUDIO
    TITLE "5:cjc030_01687"
    INDEX 01 01:09:10
  TRACK 62 AUDIO
    TITLE "0:"
    INDEX 01 01:10:33
  TRACK 63 AUDIO
    TITLE "6:cjc030_01688"
    INDEX 01 01:10:45
  TRACK 64 AUDIO
    TITLE "0:"
    INDEX 01 01:14:47
  TRACK 65 AUDIO
    TITLE "3:cjc030_01689"
    INDEX 01 01:15:19
  TRACK 66 AUDIO
    TITLE "0:"
    INDEX 01 01:16:36
  TRACK 67 AUDIO
    TITLE "4:cjc030_01690"
    INDEX 01 01:16:44
  TRACK 68 AUDIO
    TITLE "0:"
    INDEX 01 01:19:64
  TRACK 69 AUDIO
    TITLE "5:cjc030_01691"
    INDEX 01 01:19:74
  TRACK 70 AUDIO
    TITLE "0:"
    INDEX 01 01:21:14
  TRACK 71 AUDIO
    TITLE "6:cjc030_01692"
    INDEX 01 01:21:27
  TRACK 72 AUDIO
    TITLE "0:"
    INDEX 01 01:24:45
  TRACK 73 AUDIO
    TITLE "3:cjc030_01693"
    INDEX 01 01:25:17
  TRACK 74 AUDIO
    TITLE "0:"
    INDEX 01 01:26:38
  TRACK 75 AUDIO
    TITLE "4:cjc030_01694"
    INDEX 01 01:26:50
  TRACK 76 AUDIO
    TITLE "0:"
    INDEX 01 01:27:65
  TRACK 77 AUDIO
    TITLE "5:cjc030_01695"
    INDEX 01 01:27:71
  TRACK 78 AUDIO
    TITLE "0:"
    INDEX 01 01:29:19
  TRACK 79 AUDIO
    TITLE "6:cjc030_01696"
    INDEX 01 01:29:33
  TRACK 80 AUDIO
    TITLE "0:"
    INDEX 01 01:33:05
  TRACK 81 AUDIO
    TITLE "3:cjc030_01697"
    INDEX 01 01:33:54
  TRACK 82 AUDIO
    TITLE "0:"
    INDEX 01 01:35:00
  TRACK 83 AUDIO
    TITLE "4:cjc030_01698"
    INDEX 01 01:35:08
  TRACK 84 AUDIO
    TITLE "0:"
    INDEX 01 01:38:42
  TRACK 85 AUDIO
    TITLE "5:cjc030_01699"
    INDEX 01 01:38:49
  TRACK 86 AUDIO
    TITLE "0:"
    INDEX 01 01:39:70
  TRACK 87 AUDIO
    TITLE "6:cjc030_01700"
    INDEX 01 01:40:09
  TRACK 88 AUDIO
    TITLE "0:"
    INDEX 01 01:43:19
  TRACK 89 AUDIO
    TITLE "3:cjc030_01701"
    INDEX 01 01:43:66
  TRACK 90 AUDIO
    TITLE "0:"
    INDEX 01 01:45:20
  TRACK 91 AUDIO
    TITLE "4:cjc030_01702"
    INDEX 01 01:45:32
  TRACK 92 AUDIO
    TITLE "0:"
    INDEX 01 01:47:19
  TRACK 93 AUDIO
    TITLE "5:cjc030_01703"
    INDEX 01 01:47:29
  TRACK 94 AUDIO
    TITLE "0:"
    INDEX 01 01:48:58
  TRACK 95 AUDIO
    TITLE "6:cjc030_01704"
    INDEX 01 01:48:69
  TRACK 96 AUDIO
    TITLE "0:"
    INDEX 01 01:51:03
  TRACK 97 AUDIO
    TITLE "3:cjc030_01705"
    INDEX 01 01:51:52
  TRACK 98 AUDIO
    TITLE "0:"
    INDEX 01 01:52:69
  TRACK 99 AUDIO
    TITLE "4:cjc030_01706"
    INDEX 01 01:53:02
  TRACK 100 AUDIO
    TITLE "0:"
    INDEX 01 01:57:51
  TRACK 101 AUDIO
    TITLE "5:cjc030_01707"
    INDEX 01 01:57:58
  TRACK 102 AUDIO
    TITLE "0:"
    INDEX 01 01:59:03
  TRACK 103 AUDIO
    TITLE "6:cjc030_01708"
    INDEX 01 01:59:14
  TRACK 104 AUDIO
    TITLE "0:"
    INDEX 01 02:03:02
  TRACK 105 AUDIO
    TITLE "3:cjc030_01709"
    INDEX 01 02:03:49
  TRACK 106 AUDIO
    TITLE "0:"
    INDEX 01 02:04:74
  TRACK 107 AUDIO
    TITLE "4:cjc030_01710"
    INDEX 01 02:05:11
  TRACK 108 AUDIO
    TITLE "0:"
    INDEX 01 02:06:71
  TRACK 109 AUDIO
    TITLE "5:cjc030_01711"
    INDEX 01 02:07:04
  TRACK 110 AUDIO
    TITLE "0:"
    INDEX 01 02:08:31
  TRACK 111 AUDIO
    TITLE "3:cjc030_01712"
    INDEX 01 02:09:09
  TRACK 112 AUDIO
    TITLE "0:"
    INDEX 01 02:10:34
  TRACK 113 AUDIO
    TITLE "4:cjc030_01713"
    INDEX 01 02:10:47
  TRACK 114 AUDIO
    TITLE "0:"
    INDEX 01 02:11:47
  TRACK 115 AUDIO
    TITLE "5:cjc030_01714"
    INDEX 01 02:11:53
  TRACK 116 AUDIO
    TITLE "0:"
    INDEX 01 02:13:05
